# xmcd
#
# Track frame offsets:
#	150
#	15258
#	33081
#	44156
#	59285
#	78697
#	92702
#	102486
#	119167
#	139574
#	155534
#	158314
#	172163
#	194214
#	209199
#	213198
#	225695
#	240218
#	244369
#	247201
#	264637
#	268770
#	288145
#
# Disc length: 3944 seconds
#
# Revision: 1
# Processed by: cddbd v1.4PL0 Copyright (c) Steve Scherf et al.
# Submitted via: MusicWizard 6.0.0
#
DISCID=570f6617
DTITLE=Willie Nelson - A Horse Called Music (1989) and Tougher Than Leather (1983)
DYEAR=2002
DGENRE=Country
TTITLE0=Nothing I Can Do About It Now
TTITLE1=The Highway
TTITLE2=I Never Cared For You
TTITLE3=If I Were A Painting
TTITLE4=Spirit
TTITLE5=There You Are
TTITLE6=Mr Record Man
TTITLE7=If My World Didn't Have You
TTITLE8=A Horse Called Music
TTITLE9=Is The Better Part Over
TTITLE10=My Love For The Rose  (Part 1)
TTITLE11=Changing Skies  (Part 1)
TTITLE12=Tougher Than Leather
TTITLE13=Little Old Fashioned Karma
TTITLE14=Somewhere In Texas  (Part 1)
TTITLE15=Beer Barrel Polka
TTITLE16=Summer Of Roses
TTITLE17=Somewhere In Texas  (Part 2)
TTITLE18=My Love For The Rose.Wav  (Part 2)
TTITLE19=The Convict And The Rose
TTITLE20=Changing Skies  (Part 2)
TTITLE21=I Am The Forest
TTITLE22=Nobody Slides, My Friend
EXTD=Willie Nelson - A Horse called Music\n(c)1989 CBS, upc 07464450461\nWillie Nelson - Tougher t
EXTD=han leather\n(c)1983 CBS, MX 201972,QC 38248\n
EXTT0=
EXTT1=
EXTT2=
EXTT3=
EXTT4=
EXTT5=
EXTT6=
EXTT7=
EXTT8=
EXTT9=
EXTT10=
EXTT11=
EXTT12=
EXTT13=
EXTT14=
EXTT15=
EXTT16=
EXTT17=
EXTT18=
EXTT19=
EXTT20=
EXTT21=
EXTT22=
PLAYORDER=
